<svg width="1020" height="638" viewBox="0 0 1020 638" xmlns="http://www.w3.org/2000/svg" role="img"><defs><filter id="shadow" x="-20%" y="-20%" width="140%" height="160%"><feDropShadow dx="0" dy="6" stdDeviation="5" flood-color="#000000" flood-opacity="0.18"></feDropShadow></filter><marker id="arrowhead" markerUnits="userSpaceOnUse" markerWidth="7" markerHeight="7" refX="6.2" refY="3.5" orient="auto"><path d="M0,0 L7,3.5 L0,7 z" fill="#55606e"></path></marker><marker id="arrowhead-sm" markerUnits="userSpaceOnUse" markerWidth="5" markerHeight="5" refX="4.4" refY="2.5" orient="auto"><path d="M0,0 L5,2.5 L0,5 z" fill="#c9bfae"></path></marker></defs><rect x="0" y="0" width="1020" height="638" fill="#f5f1e8"></rect><g><text x="510" y="40" text-anchor="middle" font-family="'Trebuchet MS','Segoe UI',sans-serif" font-size="24" font-weight="700" fill="#111827">CourseEnrollment</text><rect x="160" y="56" width="14" height="14" rx="2" fill="#cfe3ff" stroke="#8cb6ff" stroke-width="1.5"></rect><text x="178" y="67" font-family="'Trebuchet MS','Segoe UI',sans-serif" font-size="11" font-weight="400" fill="#374151">Command</text><rect x="243" y="56" width="14" height="14" rx="2" fill="#f7ea72" stroke="#d2b100" stroke-width="1.5"></rect><text x="261" y="67" font-family="'Trebuchet MS','Segoe UI',sans-serif" font-size="11" font-weight="400" fill="#374151">Event</text><rect x="312" y="56" width="14" height="14" rx="2" fill="#b8efb6" stroke="#74c36a" stroke-width="1.5"></rect><text x="330" y="67" font-family="'Trebuchet MS','Segoe UI',sans-serif" font-size="11" font-weight="400" fill="#374151">View</text></g><text x="160" y="82" font-family="'Trebuchet MS','Segoe UI',sans-serif" font-size="10" font-weight="600" fill="#6b7280">Time ───────────────────────────────────────────►</text><rect x="0" y="90" width="1020" height="60" fill="#fff8e8"></rect><line x1="0" y1="150" x2="1020" y2="150" stroke="#c9bfae" stroke-width="1"></line><text x="150" y="120" text-anchor="end" dominant-baseline="middle" font-family="'Trebuchet MS','Segoe UI',sans-serif" font-size="12" font-weight="700" fill="#374151">Admin</text><text x="208" y="112" font-size="14" fill="#374151" font-family="'Trebuchet MS','Segoe UI',sans-serif">≡</text><text x="260" y="112" text-anchor="middle" font-family="'Trebuchet MS','Segoe UI',sans-serif" font-size="12" font-weight="600" fill="#111827">Admin defines course</text><line x1="232" y1="120" x2="288" y2="120" stroke="#6b7280" stroke-width="1" stroke-dasharray="4 3"></line><text x="608" y="112" font-size="14" fill="#374151" font-family="'Trebuchet MS','Segoe UI',sans-serif">≡</text><text x="660" y="112" text-anchor="middle" font-family="'Trebuchet MS','Segoe UI',sans-serif" font-size="12" font-weight="600" fill="#111827">Admin changes capacity</text><line x1="632" y1="120" x2="688" y2="120" stroke="#6b7280" stroke-width="1" stroke-dasharray="4 3"></line><rect x="0" y="150" width="1020" height="60" fill="#ece4d2"></rect><line x1="0" y1="210" x2="1020" y2="210" stroke="#c9bfae" stroke-width="1"></line><text x="150" y="180" text-anchor="end" dominant-baseline="middle" font-family="'Trebuchet MS','Segoe UI',sans-serif" font-size="12" font-weight="700" fill="#374151">Student</text><text x="408" y="172" font-size="14" fill="#374151" font-family="'Trebuchet MS','Segoe UI',sans-serif">≡</text><text x="460" y="172" text-anchor="middle" font-family="'Trebuchet MS','Segoe UI',sans-serif" font-size="12" font-weight="600" fill="#111827">Student registers</text><line x1="432" y1="180" x2="488" y2="180" stroke="#6b7280" stroke-width="1" stroke-dasharray="4 3"></line><text x="808" y="172" font-size="14" fill="#374151" font-family="'Trebuchet MS','Segoe UI',sans-serif">≡</text><text x="860" y="172" text-anchor="middle" font-family="'Trebuchet MS','Segoe UI',sans-serif" font-size="12" font-weight="600" fill="#111827">Student subscribes</text><line x1="832" y1="180" x2="888" y2="180" stroke="#6b7280" stroke-width="1" stroke-dasharray="4 3"></line><rect x="0" y="210" width="1020" height="408" fill="#e8efe8"></rect><rect x="0" y="210" width="1020" height="28" fill="#c8dfc8" stroke="#6b846b" stroke-width="1"></rect><text x="510" y="229" text-anchor="middle" font-family="'Trebuchet MS','Segoe UI',sans-serif" font-size="12" font-weight="700" fill="#374151">CourseEnrollment</text><g filter="url(#shadow)"><rect x="176" y="246" width="168" height="112" rx="6" fill="#cfe3ff" stroke="#8cb6ff" stroke-width="2"></rect><rect x="176" y="246" width="168" height="18" rx="6" fill="#b9d4ff"></rect><rect x="176" y="258" width="168" height="6" fill="#b9d4ff"></rect><text x="260" y="274" text-anchor="middle" font-family="'Trebuchet MS','Segoe UI',sans-serif" font-size="14" font-weight="700" fill="#111827">DefineCourse</text><rect x="270" y="250" width="68" height="13" rx="3" fill="#dbeafe" stroke="#93c5fd" stroke-width="1"></rect><text x="304" y="259" text-anchor="middle" font-family="'Trebuchet MS','Segoe UI',sans-serif" font-size="8" font-weight="700" fill="#1d4ed8">idempotent</text></g><g filter="url(#shadow)"><rect x="176" y="366" width="168" height="112" rx="6" fill="#f7ea72" stroke="#d2b100" stroke-width="2"></rect><rect x="176" y="366" width="168" height="18" rx="6" fill="#f1df48"></rect><rect x="176" y="378" width="168" height="6" fill="#f1df48"></rect><text x="260" y="394" text-anchor="middle" font-family="'Trebuchet MS','Segoe UI',sans-serif" font-size="14" font-weight="700" fill="#111827">CourseDefined</text><text x="260" y="412" text-anchor="middle" font-family="'Trebuchet MS','Segoe UI',sans-serif" font-size="11" font-weight="400" fill="#6b7280">course_id</text></g><path d="M 260 360 L 260 364" stroke="#55606e" stroke-width="1.35" stroke-dasharray="undefined" fill="none" marker-end="url(#arrowhead)" stroke-linecap="round"></path><g filter="url(#shadow)"><rect x="376" y="246" width="168" height="112" rx="6" fill="#cfe3ff" stroke="#8cb6ff" stroke-width="2"></rect><rect x="376" y="246" width="168" height="18" rx="6" fill="#b9d4ff"></rect><rect x="376" y="258" width="168" height="6" fill="#b9d4ff"></rect><text x="460" y="274" text-anchor="middle" font-family="'Trebuchet MS','Segoe UI',sans-serif" font-size="14" font-weight="700" fill="#111827">RegisterStudent</text><rect x="470" y="250" width="68" height="13" rx="3" fill="#dbeafe" stroke="#93c5fd" stroke-width="1"></rect><text x="504" y="259" text-anchor="middle" font-family="'Trebuchet MS','Segoe UI',sans-serif" font-size="8" font-weight="700" fill="#1d4ed8">idempotent</text></g><g filter="url(#shadow)"><rect x="376" y="366" width="168" height="112" rx="6" fill="#f7ea72" stroke="#d2b100" stroke-width="2"></rect><rect x="376" y="366" width="168" height="18" rx="6" fill="#f1df48"></rect><rect x="376" y="378" width="168" height="6" fill="#f1df48"></rect><text x="460" y="394" text-anchor="middle" font-family="'Trebuchet MS','Segoe UI',sans-serif" font-size="14" font-weight="700" fill="#111827">StudentRegistered</text><text x="460" y="412" text-anchor="middle" font-family="'Trebuchet MS','Segoe UI',sans-serif" font-size="11" font-weight="400" fill="#6b7280">student_id</text></g><path d="M 460 360 L 460 364" stroke="#55606e" stroke-width="1.35" stroke-dasharray="undefined" fill="none" marker-end="url(#arrowhead)" stroke-linecap="round"></path><g filter="url(#shadow)"><rect x="576" y="246" width="168" height="112" rx="6" fill="#cfe3ff" stroke="#8cb6ff" stroke-width="2"></rect><rect x="576" y="246" width="168" height="18" rx="6" fill="#b9d4ff"></rect><rect x="576" y="258" width="168" height="6" fill="#b9d4ff"></rect><text x="660" y="274" text-anchor="middle" font-family="'Trebuchet MS','Segoe UI',sans-serif" font-size="14" font-weight="700" fill="#111827">Change</text><text x="660" y="290" text-anchor="middle" font-family="'Trebuchet MS','Segoe UI',sans-serif" font-size="14" font-weight="700" fill="#111827">CourseCapacity</text><text x="660" y="308" text-anchor="middle" font-family="'Trebuchet MS','Segoe UI',sans-serif" font-size="12" font-weight="400" fill="#374151">guard: CourseDefined</text><rect x="582" y="336" width="156" height="16" rx="4" fill="#eef2ff" stroke="#a5b4fc" stroke-width="1"></rect><text x="660" y="347" text-anchor="middle" font-family="'Trebuchet MS','Segoe UI',sans-serif" font-size="9" font-weight="700" fill="#3730a3">guard: CourseDefined</text><rect x="646" y="250" width="92" height="13" rx="3" fill="#ffedd5" stroke="#fdba74" stroke-width="1"></rect><text x="692" y="259" text-anchor="middle" font-family="'Trebuchet MS','Segoe UI',sans-serif" font-size="8" font-weight="700" fill="#9a3412">non-commutative</text></g><g filter="url(#shadow)"><rect x="576" y="366" width="168" height="112" rx="6" fill="#f7ea72" stroke="#d2b100" stroke-width="2"></rect><rect x="576" y="366" width="168" height="18" rx="6" fill="#f1df48"></rect><rect x="576" y="378" width="168" height="6" fill="#f1df48"></rect><text x="660" y="394" text-anchor="middle" font-family="'Trebuchet MS','Segoe UI',sans-serif" font-size="14" font-weight="700" fill="#111827">Course</text><text x="660" y="410" text-anchor="middle" font-family="'Trebuchet MS','Segoe UI',sans-serif" font-size="14" font-weight="700" fill="#111827">CapacityChanged</text><text x="660" y="428" text-anchor="middle" font-family="'Trebuchet MS','Segoe UI',sans-serif" font-size="11" font-weight="400" fill="#6b7280">course_id</text></g><path d="M 660 360 L 660 364" stroke="#55606e" stroke-width="1.35" stroke-dasharray="undefined" fill="none" marker-end="url(#arrowhead)" stroke-linecap="round"></path><g filter="url(#shadow)"><rect x="776" y="246" width="168" height="112" rx="6" fill="#cfe3ff" stroke="#8cb6ff" stroke-width="2"></rect><rect x="776" y="246" width="168" height="18" rx="6" fill="#b9d4ff"></rect><rect x="776" y="258" width="168" height="6" fill="#b9d4ff"></rect><text x="860" y="274" text-anchor="middle" font-family="'Trebuchet MS','Segoe UI',sans-serif" font-size="14" font-weight="700" fill="#111827">Subscribe</text><text x="860" y="290" text-anchor="middle" font-family="'Trebuchet MS','Segoe UI',sans-serif" font-size="14" font-weight="700" fill="#111827">StudentToCourse</text><text x="860" y="308" text-anchor="middle" font-family="'Trebuchet MS','Segoe UI',sans-serif" font-size="12" font-weight="400" fill="#374151">guard: CourseDefined, …</text><rect x="782" y="336" width="156" height="16" rx="4" fill="#eef2ff" stroke="#a5b4fc" stroke-width="1"></rect><text x="860" y="347" text-anchor="middle" font-family="'Trebuchet MS','Segoe UI',sans-serif" font-size="9" font-weight="700" fill="#3730a3">guard: CourseDefined, Studen…</text><rect x="846" y="250" width="92" height="13" rx="3" fill="#ffedd5" stroke="#fdba74" stroke-width="1"></rect><text x="892" y="259" text-anchor="middle" font-family="'Trebuchet MS','Segoe UI',sans-serif" font-size="8" font-weight="700" fill="#9a3412">non-commutative</text></g><g filter="url(#shadow)"><rect x="776" y="366" width="168" height="112" rx="6" fill="#f7ea72" stroke="#d2b100" stroke-width="2"></rect><rect x="776" y="366" width="168" height="18" rx="6" fill="#f1df48"></rect><rect x="776" y="378" width="168" height="6" fill="#f1df48"></rect><text x="860" y="394" text-anchor="middle" font-family="'Trebuchet MS','Segoe UI',sans-serif" font-size="14" font-weight="700" fill="#111827">Student</text><text x="860" y="410" text-anchor="middle" font-family="'Trebuchet MS','Segoe UI',sans-serif" font-size="14" font-weight="700" fill="#111827">SubscribedToCourse</text><text x="860" y="428" text-anchor="middle" font-family="'Trebuchet MS','Segoe UI',sans-serif" font-size="11" font-weight="400" fill="#6b7280">course_id, student_id</text><rect x="782" y="456" width="156" height="16" rx="4" fill="#e0e7ff" stroke="#a5b4fc" stroke-width="1"></rect><text x="860" y="467" text-anchor="middle" font-family="'Trebuchet MS','Segoe UI',sans-serif" font-size="9" font-weight="700" fill="#4338ca">multi-entity DCB</text></g><path d="M 860 360 L 860 364" stroke="#55606e" stroke-width="1.35" stroke-dasharray="undefined" fill="none" marker-end="url(#arrowhead)" stroke-linecap="round"></path><g filter="url(#shadow)"><rect x="176" y="494" width="168" height="112" rx="6" fill="#b8efb6" stroke="#74c36a" stroke-width="2"></rect><rect x="176" y="494" width="168" height="18" rx="6" fill="#9ee09a"></rect><rect x="176" y="506" width="168" height="6" fill="#9ee09a"></rect><text x="260" y="522" text-anchor="middle" font-family="'Trebuchet MS','Segoe UI',sans-serif" font-size="14" font-weight="700" fill="#111827">CourseAvailability</text><text x="260" y="540" text-anchor="middle" font-family="'Trebuchet MS','Segoe UI',sans-serif" font-size="12" font-weight="400" fill="#374151">reads 3 events</text><text x="260" y="555" text-anchor="middle" font-family="'Trebuchet MS','Segoe UI',sans-serif" font-size="11" font-weight="400" fill="#6b7280">course_id</text></g><path d="M 260 480 L 260 492" stroke="#55606e" stroke-width="1.35" stroke-dasharray="undefined" fill="none" marker-end="url(#arrowhead)" stroke-linecap="round"></path><path d="M 660 480 L 660 486 L 260 486 L 260 492" stroke="#55606e" stroke-width="1.35" stroke-dasharray="undefined" fill="none" marker-end="url(#arrowhead)" stroke-linecap="round" stroke-linejoin="round"></path><path d="M 860 480 L 860 486 L 260 486 L 260 492" stroke="#55606e" stroke-width="1.35" stroke-dasharray="undefined" fill="none" marker-end="url(#arrowhead)" stroke-linecap="round" stroke-linejoin="round"></path><path d="M 260 122 L 260 244" stroke="#55606e" stroke-width="1.35" stroke-dasharray="undefined" fill="none" marker-end="url(#arrowhead)" stroke-linecap="round"></path><path d="M 660 122 L 660 244" stroke="#55606e" stroke-width="1.35" stroke-dasharray="undefined" fill="none" marker-end="url(#arrowhead)" stroke-linecap="round"></path><path d="M 460 182 L 460 244" stroke="#55606e" stroke-width="1.35" stroke-dasharray="undefined" fill="none" marker-end="url(#arrowhead)" stroke-linecap="round"></path><path d="M 860 182 L 860 244" stroke="#55606e" stroke-width="1.35" stroke-dasharray="undefined" fill="none" marker-end="url(#arrowhead)" stroke-linecap="round"></path><path d="M 260 492 L 260 122" stroke="#55606e" stroke-width="1.35" stroke-dasharray="undefined" fill="none" marker-end="url(#arrowhead)" stroke-linecap="round"></path><path d="M 260 492 L 660 122" stroke="#55606e" stroke-width="1.35" stroke-dasharray="undefined" fill="none" marker-end="url(#arrowhead)" stroke-linecap="round"></path><path d="M 260 492 L 860 182" stroke="#55606e" stroke-width="1.35" stroke-dasharray="undefined" fill="none" marker-end="url(#arrowhead)" stroke-linecap="round"></path></svg>