<svg width="620" height="642" viewBox="0 0 620 642" xmlns="http://www.w3.org/2000/svg" role="img"><defs><filter id="shadow" x="-20%" y="-20%" width="140%" height="160%"><feDropShadow dx="0" dy="6" stdDeviation="5" flood-color="#000000" flood-opacity="0.18"></feDropShadow></filter><marker id="arrowhead" markerUnits="userSpaceOnUse" markerWidth="7" markerHeight="7" refX="6.2" refY="3.5" orient="auto"><path d="M0,0 L7,3.5 L0,7 z" fill="#55606e"></path></marker><marker id="arrowhead-sm" markerUnits="userSpaceOnUse" markerWidth="5" markerHeight="5" refX="4.4" refY="2.5" orient="auto"><path d="M0,0 L5,2.5 L0,5 z" fill="#c9bfae"></path></marker></defs><rect x="0" y="0" width="620" height="642" fill="#f5f1e8"></rect><g><text x="310" y="40" text-anchor="middle" font-family="'Trebuchet MS','Segoe UI',sans-serif" font-size="24" font-weight="700" fill="#111827">LoanApplication</text><rect x="160" y="56" width="14" height="14" rx="2" fill="#cfe3ff" stroke="#8cb6ff" stroke-width="1.5"></rect><text x="178" y="67" font-family="'Trebuchet MS','Segoe UI',sans-serif" font-size="11" font-weight="400" fill="#374151">Command</text><rect x="243" y="56" width="14" height="14" rx="2" fill="#f7ea72" stroke="#d2b100" stroke-width="1.5"></rect><text x="261" y="67" font-family="'Trebuchet MS','Segoe UI',sans-serif" font-size="11" font-weight="400" fill="#374151">Event</text><rect x="312" y="56" width="14" height="14" rx="2" fill="#b8efb6" stroke="#74c36a" stroke-width="1.5"></rect><text x="330" y="67" font-family="'Trebuchet MS','Segoe UI',sans-serif" font-size="11" font-weight="400" fill="#374151">View</text></g><text x="160" y="82" font-family="'Trebuchet MS','Segoe UI',sans-serif" font-size="10" font-weight="600" fill="#6b7280">Time ───────────────────────────────────────────►</text><rect x="0" y="90" width="620" height="124" fill="#fff8e8"></rect><line x1="0" y1="214" x2="620" y2="214" stroke="#c9bfae" stroke-width="1"></line><text x="150" y="152" text-anchor="end" dominant-baseline="middle" font-family="'Trebuchet MS','Segoe UI',sans-serif" font-size="12" font-weight="700" fill="#374151">Customer</text><text x="208" y="112" font-size="14" fill="#374151" font-family="'Trebuchet MS','Segoe UI',sans-serif">≡</text><text x="260" y="112" text-anchor="middle" font-family="'Trebuchet MS','Segoe UI',sans-serif" font-size="12" font-weight="600" fill="#111827">Customer submits loan a…</text><line x1="232" y1="120" x2="288" y2="120" stroke="#6b7280" stroke-width="1" stroke-dasharray="4 3"></line><text x="340" y="148" font-size="23" fill="#374151" font-family="'Trebuchet MS','Segoe UI',sans-serif">⚙</text><text x="366" y="156" font-family="'Trebuchet MS','Segoe UI',sans-serif" font-size="11" font-weight="700" fill="#111827">FraudDetector</text><text x="366" y="172" font-family="'Trebuchet MS','Segoe UI',sans-serif" font-size="9" fill="#6b7280">on LoanApplicationSubmitted → FlagLoanApplication</text><rect x="0" y="214" width="620" height="408" fill="#e8efe8"></rect><rect x="0" y="214" width="620" height="28" fill="#c8dfc8" stroke="#6b846b" stroke-width="1"></rect><text x="310" y="233" text-anchor="middle" font-family="'Trebuchet MS','Segoe UI',sans-serif" font-size="12" font-weight="700" fill="#374151">LoanApplication</text><g filter="url(#shadow)"><rect x="176" y="250" width="168" height="112" rx="6" fill="#cfe3ff" stroke="#8cb6ff" stroke-width="2"></rect><rect x="176" y="250" width="168" height="18" rx="6" fill="#b9d4ff"></rect><rect x="176" y="262" width="168" height="6" fill="#b9d4ff"></rect><text x="260" y="278" text-anchor="middle" font-family="'Trebuchet MS','Segoe UI',sans-serif" font-size="14" font-weight="700" fill="#111827">Submit</text><text x="260" y="294" text-anchor="middle" font-family="'Trebuchet MS','Segoe UI',sans-serif" font-size="14" font-weight="700" fill="#111827">LoanApplication</text><rect x="270" y="254" width="68" height="13" rx="3" fill="#dbeafe" stroke="#93c5fd" stroke-width="1"></rect><text x="304" y="263" text-anchor="middle" font-family="'Trebuchet MS','Segoe UI',sans-serif" font-size="8" font-weight="700" fill="#1d4ed8">idempotent</text></g><g filter="url(#shadow)"><rect x="176" y="370" width="168" height="112" rx="6" fill="#f7ea72" stroke="#d2b100" stroke-width="2"></rect><rect x="176" y="370" width="168" height="18" rx="6" fill="#f1df48"></rect><rect x="176" y="382" width="168" height="6" fill="#f1df48"></rect><text x="260" y="398" text-anchor="middle" font-family="'Trebuchet MS','Segoe UI',sans-serif" font-size="14" font-weight="700" fill="#111827">LoanApplication</text><text x="260" y="414" text-anchor="middle" font-family="'Trebuchet MS','Segoe UI',sans-serif" font-size="14" font-weight="700" fill="#111827">Submitted</text><text x="260" y="432" text-anchor="middle" font-family="'Trebuchet MS','Segoe UI',sans-serif" font-size="11" font-weight="400" fill="#6b7280">application_id, customer…</text></g><path d="M 260 364 L 260 368" stroke="#55606e" stroke-width="1.35" stroke-dasharray="undefined" fill="none" marker-end="url(#arrowhead)" stroke-linecap="round"></path><g filter="url(#shadow)"><rect x="376" y="250" width="168" height="112" rx="6" fill="#cfe3ff" stroke="#8cb6ff" stroke-width="2"></rect><rect x="376" y="250" width="168" height="18" rx="6" fill="#b9d4ff"></rect><rect x="376" y="262" width="168" height="6" fill="#b9d4ff"></rect><text x="460" y="278" text-anchor="middle" font-family="'Trebuchet MS','Segoe UI',sans-serif" font-size="14" font-weight="700" fill="#111827">FlagLoanApplication</text><text x="460" y="296" text-anchor="middle" font-family="'Trebuchet MS','Segoe UI',sans-serif" font-size="12" font-weight="400" fill="#374151">guard: LoanApplication…</text><rect x="382" y="340" width="156" height="16" rx="4" fill="#eef2ff" stroke="#a5b4fc" stroke-width="1"></rect><text x="460" y="351" text-anchor="middle" font-family="'Trebuchet MS','Segoe UI',sans-serif" font-size="9" font-weight="700" fill="#3730a3">guard: LoanApplicationSubmit…</text><rect x="470" y="254" width="68" height="13" rx="3" fill="#dbeafe" stroke="#93c5fd" stroke-width="1"></rect><text x="504" y="263" text-anchor="middle" font-family="'Trebuchet MS','Segoe UI',sans-serif" font-size="8" font-weight="700" fill="#1d4ed8">idempotent</text></g><g filter="url(#shadow)"><rect x="376" y="370" width="168" height="112" rx="6" fill="#f7ea72" stroke="#d2b100" stroke-width="2"></rect><rect x="376" y="370" width="168" height="18" rx="6" fill="#f1df48"></rect><rect x="376" y="382" width="168" height="6" fill="#f1df48"></rect><text x="460" y="398" text-anchor="middle" font-family="'Trebuchet MS','Segoe UI',sans-serif" font-size="14" font-weight="700" fill="#111827">LoanApplication</text><text x="460" y="414" text-anchor="middle" font-family="'Trebuchet MS','Segoe UI',sans-serif" font-size="14" font-weight="700" fill="#111827">FlaggedAsFraudulent</text><text x="460" y="432" text-anchor="middle" font-family="'Trebuchet MS','Segoe UI',sans-serif" font-size="11" font-weight="400" fill="#6b7280">application_id</text></g><path d="M 460 364 L 460 368" stroke="#55606e" stroke-width="1.35" stroke-dasharray="undefined" fill="none" marker-end="url(#arrowhead)" stroke-linecap="round"></path><g filter="url(#shadow)"><rect x="176" y="498" width="168" height="112" rx="6" fill="#b8efb6" stroke="#74c36a" stroke-width="2"></rect><rect x="176" y="498" width="168" height="18" rx="6" fill="#9ee09a"></rect><rect x="176" y="510" width="168" height="6" fill="#9ee09a"></rect><text x="260" y="526" text-anchor="middle" font-family="'Trebuchet MS','Segoe UI',sans-serif" font-size="14" font-weight="700" fill="#111827">Pending</text><text x="260" y="542" text-anchor="middle" font-family="'Trebuchet MS','Segoe UI',sans-serif" font-size="14" font-weight="700" fill="#111827">LoanApplications</text><text x="260" y="560" text-anchor="middle" font-family="'Trebuchet MS','Segoe UI',sans-serif" font-size="12" font-weight="400" fill="#374151">reads 1 events</text><text x="260" y="575" text-anchor="middle" font-family="'Trebuchet MS','Segoe UI',sans-serif" font-size="11" font-weight="400" fill="#6b7280">application_id</text></g><path d="M 260 484 L 260 496" stroke="#55606e" stroke-width="1.35" stroke-dasharray="undefined" fill="none" marker-end="url(#arrowhead)" stroke-linecap="round"></path><path d="M 260 122 L 260 248" stroke="#55606e" stroke-width="1.35" stroke-dasharray="undefined" fill="none" marker-end="url(#arrowhead)" stroke-linecap="round"></path><path d="M 260 496 L 260 122" stroke="#55606e" stroke-width="1.35" stroke-dasharray="undefined" fill="none" marker-end="url(#arrowhead)" stroke-linecap="round"></path><path d="M 260 496 L 340 200" stroke="#55606e" stroke-width="1.35" stroke-dasharray="5 4" fill="none" marker-end="url(#arrowhead)" stroke-linecap="round"></path></svg>