<svg xmlns="http://www.w3.org/2000/svg" width="1900" height="980" viewBox="0 0 1900 980" role="img" aria-labelledby="title desc">
  <title id="title">Wallet Opened Automation and Outbox Event Modeling Board</title>
  <desc id="desc">Horizontal Event Modeling timeline for the wallet sample with one main event timeline and lane-specific projections, automation, follow-up command, and illustrative outbox publication.</desc>
  <defs>
    <style>
      .bg { fill: #f5f1e8; }
      .title { font: 700 28px 'Trebuchet MS', 'Segoe UI', sans-serif; fill: #1f2937; }
      .subtitle { font: 400 16px 'Trebuchet MS', 'Segoe UI', sans-serif; fill: #5b6470; }
      .lane-line { stroke: #c9bfae; stroke-width: 3; stroke-dasharray: 10 10; }
      .lane-label { font: 700 21px 'Trebuchet MS', 'Segoe UI', sans-serif; fill: #374151; letter-spacing: 1px; }
      .lane-note { font: 400 13px 'Trebuchet MS', 'Segoe UI', sans-serif; fill: #6b7280; }
      .sticky-title { font: 700 21px 'Trebuchet MS', 'Segoe UI', sans-serif; fill: #111827; }
      .sticky-text { font: 400 15px 'Trebuchet MS', 'Segoe UI', sans-serif; fill: #1f2937; }
      .small-note { font: 700 18px 'Trebuchet MS', 'Segoe UI', sans-serif; fill: #374151; }
      .small-text { font: 400 15px 'Trebuchet MS', 'Segoe UI', sans-serif; fill: #475569; }
      .arrow { stroke: #55606e; stroke-width: 4; fill: none; marker-end: url(#arrowhead); stroke-linecap: round; stroke-linejoin: round; }
      .branch-label { font: 700 14px 'Trebuchet MS', 'Segoe UI', sans-serif; fill: #55606e; }
      .legend { font: 700 16px 'Trebuchet MS', 'Segoe UI', sans-serif; fill: #374151; }
      .legend-text { font: 400 15px 'Trebuchet MS', 'Segoe UI', sans-serif; fill: #475569; }
    </style>
    <filter id="shadow" x="-20%" y="-20%" width="140%" height="160%">
      <feDropShadow dx="0" dy="6" stdDeviation="5" flood-color="#000000" flood-opacity="0.18"/>
    </filter>
    <marker id="arrowhead" markerWidth="12" markerHeight="12" refX="10" refY="6" orient="auto">
      <path d="M0,0 L12,6 L0,12 z" fill="#55606e"/>
    </marker>
  </defs>

  <rect class="bg" x="0" y="0" width="1900" height="980"/>
  <text class="title" x="950" y="52" text-anchor="middle">Wallet Opened with Automation and Outbox</text>
  <text class="subtitle" x="950" y="80" text-anchor="middle">Horizontal Event Modeling timeline with a main event stream and illustrative view, automation, and outbox consequences.</text>

  <line class="lane-line" x1="100" y1="170" x2="1820" y2="170"/>
  <line class="lane-line" x1="100" y1="310" x2="1820" y2="310"/>
  <line class="lane-line" x1="100" y1="450" x2="1820" y2="450"/>
  <line class="lane-line" x1="100" y1="590" x2="1820" y2="590"/>
  <line class="lane-line" x1="100" y1="730" x2="1820" y2="730"/>

  <text class="lane-label" x="120" y="145">TRIGGER</text>
  <text class="lane-note" x="120" y="165">What starts the flow</text>
  <text class="lane-label" x="120" y="285">COMMAND</text>
  <text class="lane-note" x="120" y="305">Intent to change state</text>
  <text class="lane-label" x="120" y="425">EVENT</text>
  <text class="lane-note" x="120" y="445">Committed facts across time</text>
  <text class="lane-label" x="120" y="565">VIEW / AUTOMATION</text>
  <text class="lane-note" x="120" y="585">Consequences triggered by an event</text>
  <text class="lane-label" x="120" y="705">COMMAND / TRANSLATION</text>
  <text class="lane-note" x="120" y="725">Follow-up command and illustrative outbox path</text>

  <g filter="url(#shadow)">
    <rect x="300" y="185" width="280" height="86" rx="6" fill="#ffffff" stroke="#d4d4d8" stroke-width="2"/>
    <rect x="300" y="185" width="280" height="18" fill="#efe7d6"/>
    <text class="sticky-title" x="440" y="230" text-anchor="middle">Customer opens wallet</text>
    <text class="sticky-text" x="440" y="254" text-anchor="middle">UI or API request</text>
  </g>

  <g filter="url(#shadow)">
    <rect x="610" y="325" width="300" height="90" rx="6" fill="#cfe3ff" stroke="#8cb6ff" stroke-width="2"/>
    <rect x="610" y="325" width="300" height="18" fill="#b9d4ff"/>
    <text class="sticky-title" x="760" y="371" text-anchor="middle">OpenWalletCommand</text>
    <text class="sticky-text" x="760" y="397" text-anchor="middle">walletId, ownerId</text>
  </g>

  <g filter="url(#shadow)">
    <rect x="960" y="465" width="300" height="94" rx="6" fill="#f7ea72" stroke="#d2b100" stroke-width="2"/>
    <rect x="960" y="465" width="300" height="18" fill="#f1df48"/>
    <text class="sticky-title" x="1110" y="511" text-anchor="middle">WalletOpened</text>
    <text class="sticky-text" x="1110" y="537" text-anchor="middle">walletId, ownerId, openedAt</text>
  </g>

  <g filter="url(#shadow)">
    <rect x="1310" y="465" width="330" height="94" rx="6" fill="#f7ea72" stroke="#d2b100" stroke-width="2"/>
    <rect x="1310" y="465" width="330" height="18" fill="#f1df48"/>
    <text class="sticky-title" x="1475" y="511" text-anchor="middle">WelcomeNotificationSent</text>
    <text class="sticky-text" x="1475" y="537" text-anchor="middle">follow-up fact with idempotency check</text>
  </g>

  <g filter="url(#shadow)">
    <rect x="930" y="605" width="340" height="90" rx="6" fill="#b8efb6" stroke="#74c36a" stroke-width="2"/>
    <rect x="930" y="605" width="340" height="18" fill="#9ee09a"/>
    <text class="sticky-title" x="1100" y="651" text-anchor="middle">WalletSummaryView</text>
    <text class="sticky-text" x="1100" y="677" text-anchor="middle">wallet becomes queryable</text>
  </g>

  <g filter="url(#shadow)">
    <rect x="1310" y="605" width="330" height="90" rx="6" fill="#fbd38d" stroke="#d69e2e" stroke-width="2"/>
    <rect x="1310" y="605" width="330" height="18" fill="#f6bf5f"/>
    <text class="sticky-title" x="1475" y="651" text-anchor="middle">WalletOpenedAutomation</text>
    <text class="sticky-text" x="1475" y="677" text-anchor="middle">policy wakes on WalletOpened</text>
  </g>

  <g filter="url(#shadow)">
    <rect x="1470" y="745" width="280" height="90" rx="6" fill="#cfe3ff" stroke="#8cb6ff" stroke-width="2"/>
    <rect x="1470" y="745" width="280" height="18" fill="#b9d4ff"/>
    <text class="sticky-title" x="1610" y="791" text-anchor="middle">SendWelcomeNotification</text>
    <text class="sticky-text" x="1610" y="817" text-anchor="middle">follow-up command</text>
  </g>

  <g filter="url(#shadow)">
    <rect x="980" y="745" width="280" height="90" rx="6" fill="#f9c4d2" stroke="#db7b97" stroke-width="2"/>
    <rect x="980" y="745" width="280" height="18" fill="#f5a8bc"/>
    <text class="sticky-title" x="1120" y="791" text-anchor="middle">Outbox Publication</text>
    <text class="sticky-text" x="1120" y="817" text-anchor="middle">example path from WalletOpened</text>
  </g>

  <path class="arrow" d="M580 228 L660 228 L660 325"/>
  <path class="arrow" d="M910 370 L1010 370 L1010 465"/>
  <path class="arrow" d="M1260 512 L1310 512"/>

  <path class="arrow" d="M1110 559 L1110 605"/>
  <text class="branch-label" x="1124" y="590">projects to view</text>

  <path class="arrow" d="M1180 559 L1390 605"/>
  <text class="branch-label" x="1270" y="578">wakes automation</text>

  <path class="arrow" d="M1110 559 L1120 745"/>
  <text class="branch-label" x="1136" y="686">example outbox path</text>

  <path class="arrow" d="M1640 695 L1640 745"/>

  <g filter="url(#shadow)">
    <rect x="160" y="855" width="480" height="92" rx="8" fill="#fffaf1" stroke="#d6c8aa" stroke-width="2"/>
    <text class="small-note" x="400" y="890" text-anchor="middle">Reading order</text>
    <text class="small-text" x="400" y="916" text-anchor="middle">Read the event lane left to right as the timeline.</text>
    <text class="small-text" x="400" y="938" text-anchor="middle">Other lanes sit beneath the event they depend on.</text>
  </g>

  <g filter="url(#shadow)">
    <rect x="690" y="855" width="500" height="92" rx="8" fill="#fffaf1" stroke="#d6c8aa" stroke-width="2"/>
    <text class="small-note" x="940" y="890" text-anchor="middle">Automation consequence</text>
    <text class="small-text" x="940" y="916" text-anchor="middle">WalletOpened wakes a policy, which emits a follow-up command,</text>
    <text class="small-text" x="940" y="938" text-anchor="middle">which later records WelcomeNotificationSent on the event timeline.</text>
  </g>

  <g filter="url(#shadow)">
    <rect x="1240" y="855" width="500" height="92" rx="8" fill="#fffaf1" stroke="#d6c8aa" stroke-width="2"/>
    <text class="small-note" x="1490" y="890" text-anchor="middle">Illustrative outbox consequence</text>
    <text class="small-text" x="1490" y="916" text-anchor="middle">This board shows one example publication path from WalletOpened</text>
    <text class="small-text" x="1490" y="938" text-anchor="middle">to match the sample, not every later event consequence.</text>
  </g>

  <rect x="1460" y="110" width="320" height="112" rx="10" fill="#fffaf1" stroke="#d6c8aa" stroke-width="2"/>
  <text class="legend" x="1490" y="146">Color key</text>
  <rect x="1490" y="164" width="22" height="22" fill="#cfe3ff" stroke="#8cb6ff" stroke-width="2"/>
  <text class="legend-text" x="1524" y="181">command</text>
  <rect x="1590" y="164" width="22" height="22" fill="#f7ea72" stroke="#d2b100" stroke-width="2"/>
  <text class="legend-text" x="1624" y="181">event</text>
  <rect x="1690" y="164" width="22" height="22" fill="#b8efb6" stroke="#74c36a" stroke-width="2"/>
  <text class="legend-text" x="1724" y="181">view</text>
  <rect x="1490" y="196" width="22" height="22" fill="#fbd38d" stroke="#d69e2e" stroke-width="2"/>
  <text class="legend-text" x="1524" y="213">automation</text>
  <rect x="1590" y="196" width="22" height="22" fill="#f9c4d2" stroke="#db7b97" stroke-width="2"/>
  <text class="legend-text" x="1624" y="213">translation / outbox</text>
</svg>
